{"glyphs":{":":{"x_min":0,"x_max":228,"ha":228,"o":"m 119 418 l 136 519 l 218 519 l 201 418 z m 47 0 l 64 100 l 146 100 l 129 0 z"},"$":{"x_min":0,"x_max":456,"ha":456,"o":"m 182 -6 q 125 8 85 65 q 46 122 42 207 l 115 212 q 118 154 140 117 q 162 80 194 66 l 240 336 q 190 363 165 389 q 141 416 126 453 q 111 490 111 531 q 111 612 165 669 q 219 726 292 726 l 307 726 l 313 764 l 354 764 l 346 719 q 456 687 469 543 l 400 539 q 395 585 378 610 q 362 634 333 646 l 292 401 q 369 362 401 315 q 433 268 433 206 q 433 121 380 54 q 328 -13 232 -13 l 221 -12 l 207 -96 l 167 -96 z m 255 420 l 295 655 q 247 657 215 624 q 183 591 183 537 q 183 498 198 471 q 214 445 255 420 z m 277 317 l 233 58 l 239 58 q 287 58 324 98 q 360 139 360 196 q 360 236 343 264 q 325 292 277 317 z"},"?":{"x_min":0,"x_max":456,"ha":456,"o":"m 172 179 q 176 223 188 256 q 200 289 220 318 q 240 347 294 401 q 352 458 370 493 q 388 527 388 559 q 388 600 360 629 q 333 657 293 657 q 248 657 218 623 q 188 588 177 505 l 104 520 q 122 626 172 677 q 222 728 291 728 q 363 728 412 678 q 460 629 460 552 q 460 496 428 446 q 406 410 332 337 q 280 287 264 257 q 248 228 241 179 z m 137 0 l 154 100 l 236 100 l 218 0 z"},"<":{"x_min":0,"x_max":479,"ha":479,"o":"m 44 313 l 44 395 l 433 595 l 433 508 l 125 354 l 433 198 l 433 110 z"},"'":{"x_min":0,"x_max":157,"ha":157,"o":"m 104 462 l 109 596 l 130 716 l 212 716 l 191 596 l 149 462 z"},"=":{"x_min":0,"x_max":479,"ha":479,"o":"m 433 421 l 45 421 l 45 503 l 433 503 z m 433 204 l 45 204 l 45 286 l 433 286 z"},"a":{"x_min":0,"x_max":456,"ha":456,"o":"m 314 64 q 274 22 239 5 q 204 -12 167 -12 q 111 -12 73 29 q 36 69 36 139 q 36 189 58 226 q 79 263 118 283 q 157 303 229 306 q 290 310 313 313 q 335 317 352 325 q 360 362 360 386 q 360 418 337 438 q 313 458 268 458 q 178 458 151 363 l 78 371 q 124 530 272 530 q 346 530 389 492 q 432 454 432 396 q 432 354 422 299 l 398 170 q 387 109 387 71 q 387 44 396 0 l 323 0 q 316 24 314 64 z m 341 263 q 314 250 250 243 q 185 236 160 226 q 136 215 122 193 q 108 171 108 142 q 108 103 130 80 q 152 57 189 57 q 224 57 256 78 q 288 100 308 140 q 329 181 341 263 z"},"L":{"x_min":0,"x_max":456,"ha":456,"o":"m 33 0 l 155 716 l 234 716 l 125 81 l 430 81 l 416 0 z"},"3":{"x_min":0,"x_max":456,"ha":456,"o":"m 45 188 l 116 198 q 124 122 151 90 q 179 58 223 58 q 274 58 314 104 q 354 149 354 211 q 354 268 324 301 q 294 334 247 334 q 241 334 224 332 l 236 406 q 246 404 256 404 q 314 404 350 439 q 385 475 385 532 q 385 583 356 615 q 328 648 292 648 q 252 648 221 614 q 189 580 181 516 l 109 534 q 127 625 178 672 q 229 719 295 719 q 364 719 411 667 q 457 616 457 534 q 457 478 433 436 q 409 394 360 366 q 394 341 411 305 q 428 269 428 223 q 428 125 368 56 q 307 -12 228 -12 q 152 -12 102 40 q 51 92 45 188 z"},";":{"x_min":0,"x_max":228,"ha":228,"o":"m 117 418 l 134 519 l 215 519 l 198 418 z m 45 0 l 62 100 l 145 100 l 130 13 q 105 -132 20 -145 l 27 -106 q 74 -90 90 0 z"},"J":{"x_min":0,"x_max":410,"ha":410,"o":"m 33 208 l 106 215 q 99 173 99 153 q 99 112 120 90 q 142 67 176 67 q 200 67 219 80 q 238 92 250 118 q 263 145 273 208 l 360 716 l 439 716 l 350 193 q 331 81 286 34 q 242 -12 174 -12 q 105 -12 66 27 q 27 66 27 144 q 27 177 33 208 z"},"V":{"x_min":0,"x_max":547,"ha":547,"o":"m 214 0 l 102 716 l 177 716 l 245 289 q 264 173 270 102 q 307 195 331 247 l 540 716 l 621 716 l 298 0 z"},"\"":{"x_min":0,"x_max":291,"ha":291,"o":"m 107 462 l 111 599 l 131 716 l 213 716 l 193 599 l 151 462 z m 239 462 l 244 599 l 264 716 l 346 716 l 326 599 l 283 462 z"},"7":{"x_min":0,"x_max":456,"ha":456,"o":"m 119 0 q 132 93 174 217 q 216 341 273 447 q 331 552 393 625 l 100 625 l 114 706 l 489 706 l 475 625 q 382 526 314 375 q 227 183 195 0 z"},"S":{"x_min":0,"x_max":547,"ha":547,"o":"m 58 231 l 135 240 l 134 216 q 134 168 154 131 q 168 103 203 85 q 238 67 287 67 q 354 67 393 103 q 432 138 432 191 q 432 228 410 255 q 387 282 303 327 q 237 361 214 379 q 171 411 151 449 q 131 487 131 537 q 131 623 186 675 q 241 728 336 728 q 402 728 449 703 q 496 678 524 630 q 551 583 551 528 l 551 513 l 475 505 l 475 521 q 475 556 458 586 q 440 616 408 632 q 376 648 334 648 q 274 648 240 619 q 207 590 207 542 q 207 499 232 475 q 258 452 357 398 q 430 358 456 334 q 482 309 497 275 q 511 240 511 197 q 511 107 448 48 q 385 -12 283 -12 q 173 -12 116 47 q 59 105 58 231 z"},"}":{"x_min":0,"x_max":274,"ha":274,"o":"m 253 299 l 239 219 q 212 218 189 202 q 167 185 153 153 q 139 120 123 30 q 107 -58 98 -89 q 84 -136 60 -167 q 42 -190 17 -200 q -8 -210 -46 -210 l -68 -210 l -55 -134 l -42 -134 q -10 -134 5 -125 q 20 -116 28 -95 q 37 -75 50 3 q 69 107 84 149 q 100 191 123 217 q 146 243 180 259 q 149 279 136 304 q 123 330 123 371 q 123 414 141 515 q 153 586 153 607 q 153 631 141 641 q 129 651 96 651 l 83 651 l 97 728 l 120 728 q 161 728 180 718 q 199 708 210 686 q 222 664 222 630 q 222 593 204 488 q 190 409 190 380 q 190 341 209 317 q 223 300 253 299 z"},"Z":{"x_min":0,"x_max":501,"ha":501,"o":"m 20 0 l 27 72 l 383 591 q 401 618 418 640 q 381 634 359 634 l 103 634 l 117 716 l 522 716 l 515 641 l 200 185 l 126 79 q 146 82 166 82 l 469 82 l 455 0 z"},"x":{"x_min":0,"x_max":410,"ha":410,"o":"m -1 0 l 184 263 l 78 519 l 158 519 l 193 426 q 214 374 229 327 l 352 519 l 441 519 l 262 256 l 369 0 l 289 0 l 247 105 q 233 141 216 189 l 89 0 z"},")":{"x_min":0,"x_max":273,"ha":273,"o":"m 162 728 q 226 561 226 384 q 226 263 199 160 q 173 57 119 -44 q 85 -109 12 -210 l -44 -210 q 6 -145 58 -32 q 109 80 132 184 q 154 288 154 394 q 154 556 108 728 z"},"&":{"x_min":0,"x_max":547,"ha":547,"o":"m 407 70 q 355 19 319 1 q 284 -16 242 -16 q 166 -16 115 40 q 64 95 64 186 q 64 269 103 324 q 142 379 219 421 q 198 477 193 497 q 188 525 188 555 q 188 621 229 675 q 270 728 335 728 q 389 728 425 689 q 460 651 460 590 q 460 539 429 492 q 397 445 314 394 q 366 279 415 204 q 445 248 471 306 l 534 267 q 507 199 461 134 q 489 91 529 36 l 474 -17 q 433 26 407 70 z m 288 460 q 390 523 390 589 q 390 619 373 638 q 356 657 334 657 q 307 657 285 630 q 263 604 263 564 q 263 518 288 460 z m 365 138 q 291 255 249 352 q 192 320 169 291 q 138 249 138 196 q 138 138 170 101 q 202 64 245 64 q 305 64 365 138 z"},"_":{"x_min":0,"x_max":456,"ha":456,"o":"m -6 -75 l 460 -75 l 460 -125 l -6 -125 z"},"v":{"x_min":0,"x_max":410,"ha":410,"o":"m 134 0 l 64 519 l 135 519 l 171 233 q 177 184 186 80 q 207 136 240 207 l 381 519 l 458 519 l 215 0 z"},"O":{"x_min":0,"x_max":638,"ha":638,"o":"m 75 300 q 75 497 173 619 q 261 728 386 728 q 492 728 563 643 q 634 558 634 407 q 634 285 587 186 q 541 87 470 38 q 399 -12 321 -12 q 253 -12 199 24 q 145 60 110 133 q 75 207 75 300 z m 152 295 q 152 191 204 129 q 256 67 327 67 q 380 67 432 106 q 484 146 520 231 q 556 315 556 416 q 556 524 505 586 q 455 648 383 648 q 300 648 233 567 q 152 467 152 295 z"},"(":{"x_min":0,"x_max":273,"ha":273,"o":"m 132 -210 q 69 -42 69 133 q 69 256 96 359 q 122 462 175 562 q 208 624 282 728 l 339 728 q 288 662 237 550 q 186 438 163 334 q 140 230 140 123 q 140 -38 187 -210 z"},"C":{"x_min":0,"x_max":592,"ha":592,"o":"m 494 252 l 572 239 q 535 113 463 50 q 392 -12 307 -12 q 203 -12 138 65 q 74 143 74 295 q 74 472 155 595 q 242 728 381 728 q 470 728 530 669 q 589 610 599 503 l 525 495 q 502 649 384 649 q 280 649 216 543 q 152 438 152 293 q 152 181 198 124 q 243 67 312 67 q 372 67 417 110 q 472 163 494 252 z"},"W":{"x_min":0,"x_max":774,"ha":774,"o":"m 139 0 l 103 716 l 182 716 l 196 362 q 201 246 201 179 l 200 132 l 271 304 l 449 716 l 530 716 l 550 297 q 553 221 554 125 q 562 149 579 196 q 608 277 623 312 l 791 716 l 870 716 l 572 0 l 488 0 l 468 434 q 465 490 463 570 q 438 500 423 465 l 220 0 z"},"A":{"x_min":0,"x_max":547,"ha":547,"o":"m -16 0 l 316 716 l 409 716 l 506 0 l 430 0 l 401 206 l 164 206 l 70 0 z m 198 280 l 392 280 l 369 459 q 356 566 353 638 q 333 576 294 492 z"},"f":{"x_min":0,"x_max":228,"ha":228,"o":"m 38 0 l 115 450 l 50 450 l 62 519 l 126 519 l 139 592 q 152 669 171 693 q 199 728 255 728 q 282 728 335 714 l 322 637 q 285 648 260 648 q 239 648 228 635 q 217 622 208 574 l 199 519 l 280 519 l 268 450 l 187 450 l 110 0 z"},"Q":{"x_min":0,"x_max":638,"ha":638,"o":"m 496 58 q 524 16 576 -25 l 542 -82 q 487 -39 446 21 q 391 -13 323 -13 q 218 -13 147 73 q 76 159 76 312 q 76 433 122 532 q 167 631 237 680 q 306 728 387 728 q 493 728 564 643 q 635 558 635 407 q 635 297 597 205 q 559 113 496 58 z m 448 119 q 494 162 525 242 q 557 323 557 411 q 557 523 506 586 q 456 648 384 648 q 330 648 276 608 q 222 567 188 486 q 153 405 153 303 q 153 191 205 129 q 257 67 331 67 q 364 67 396 83 q 359 125 322 148 l 350 208 q 399 183 448 119 z"},"w":{"x_min":0,"x_max":592,"ha":592,"o":"m 108 0 l 63 519 l 133 519 l 152 286 q 159 201 162 96 q 182 173 209 248 l 311 519 l 390 519 l 404 259 q 407 204 408 102 q 428 167 473 283 l 564 519 l 637 519 l 429 0 l 354 0 l 338 304 q 336 336 335 415 q 319 362 296 302 l 184 0 z"},"-":{"x_min":0,"x_max":273,"ha":273,"o":"m 38 215 l 53 303 l 274 303 l 259 215 z"},"E":{"x_min":0,"x_max":547,"ha":547,"o":"m 37 0 l 160 716 l 583 716 l 570 634 l 224 634 l 186 412 l 522 412 l 508 330 l 172 330 l 129 81 l 499 81 l 485 0 z"},"s":{"x_min":0,"x_max":410,"ha":410,"o":"m 31 177 l 104 183 q 104 119 132 88 q 160 57 209 57 q 253 57 279 79 q 305 101 305 136 q 305 161 289 181 q 272 201 217 229 q 154 263 134 281 q 113 298 102 324 q 91 350 91 381 q 91 446 133 488 q 175 530 243 530 q 319 530 363 487 q 407 444 409 366 l 337 360 q 336 409 309 436 q 283 462 238 462 q 203 462 181 442 q 159 422 159 396 q 159 374 172 358 q 185 341 239 313 q 321 270 344 244 q 378 204 378 146 q 378 81 332 35 q 287 -12 206 -12 q 124 -12 78 35 q 31 82 31 167 z"},">":{"x_min":0,"x_max":479,"ha":479,"o":"m 433 313 l 44 110 l 44 198 l 353 354 l 44 508 l 44 595 l 433 395 z"},"l":{"x_min":0,"x_max":182,"ha":182,"o":"m 21 0 l 144 716 l 217 716 l 94 0 z"},"8":{"x_min":0,"x_max":456,"ha":456,"o":"m 185 394 q 152 416 135 448 q 119 480 119 524 q 119 593 166 656 q 212 719 297 719 q 370 719 416 670 q 462 622 462 544 q 462 490 438 449 q 413 408 363 383 q 400 355 417 320 q 434 284 434 237 q 434 126 374 57 q 313 -13 229 -13 q 158 -13 109 41 q 61 95 61 182 q 61 234 78 280 q 95 327 120 353 q 146 380 185 394 z m 190 520 q 190 472 215 445 q 240 418 281 418 q 329 418 361 454 q 393 489 393 545 q 393 593 368 620 q 342 648 302 648 q 272 648 247 632 q 221 616 206 585 q 190 555 190 520 z m 134 175 q 134 122 163 90 q 192 58 236 58 q 292 58 326 116 q 360 174 360 238 q 360 291 333 322 q 306 353 264 353 q 211 353 172 304 q 134 255 134 175 z"},"\\":{"x_min":0,"x_max":228,"ha":228,"o":"m 168 -12 l 70 728 l 126 728 l 224 -12 z"},"e":{"x_min":0,"x_max":456,"ha":456,"o":"m 339 176 l 410 167 q 393 92 329 36 q 275 -12 210 -12 q 164 -12 125 13 q 87 39 65 89 q 42 139 42 208 q 42 299 77 378 q 111 458 161 494 q 211 530 269 530 q 343 530 389 474 q 436 418 436 315 q 436 277 431 237 l 117 237 q 116 222 116 209 q 116 136 144 98 q 171 61 210 61 q 248 61 283 90 q 319 120 339 176 z m 129 305 l 368 305 l 368 323 q 368 392 340 427 q 313 461 271 461 q 225 461 186 422 q 148 383 129 305 z"},"b":{"x_min":0,"x_max":456,"ha":456,"o":"m 27 0 l 150 716 l 223 716 l 179 460 q 214 500 242 515 q 270 530 299 530 q 358 530 398 477 q 439 424 439 319 q 439 222 406 143 q 374 64 326 26 q 278 -12 231 -12 q 144 -12 108 98 l 91 0 z m 135 213 l 134 194 q 134 128 161 94 q 188 61 227 61 q 258 61 288 86 q 318 112 343 181 q 368 250 368 316 q 368 387 342 423 q 315 459 276 459 q 241 459 208 424 q 174 390 151 310 q 135 251 135 213 z"},"%":{"x_min":0,"x_max":729,"ha":729,"o":"m 115 -26 l 600 728 l 665 728 l 182 -26 z m 80 496 q 80 538 97 599 q 115 660 148 691 q 181 722 227 722 q 281 722 311 688 q 341 654 341 584 q 341 515 318 454 q 294 394 262 369 q 229 345 188 345 q 136 345 108 381 q 80 416 80 496 z m 141 479 q 141 438 154 421 q 167 404 188 404 q 209 404 225 418 q 246 438 262 489 q 278 540 278 595 q 278 628 264 646 q 250 663 229 663 q 209 663 194 648 q 172 629 157 580 q 141 530 141 479 z m 438 124 q 438 166 455 227 q 473 288 506 319 q 539 350 584 350 q 639 350 669 316 q 699 283 699 213 q 699 143 676 83 q 652 22 620 -2 q 587 -26 546 -26 q 494 -26 466 9 q 438 44 438 124 z m 499 107 q 499 66 512 49 q 525 32 546 32 q 567 32 583 46 q 604 66 620 117 q 636 167 636 221 q 636 257 622 274 q 608 291 587 291 q 567 291 552 277 q 530 257 515 208 q 499 159 499 107 z"},"m":{"x_min":0,"x_max":683,"ha":683,"o":"m 26 0 l 115 519 l 188 519 l 173 433 q 215 491 247 510 q 278 530 314 530 q 353 530 380 505 q 407 480 416 433 q 448 482 484 506 q 520 530 560 530 q 610 530 638 500 q 666 471 666 414 q 666 389 656 334 l 599 0 l 527 0 l 585 343 q 593 385 593 403 q 593 430 579 444 q 565 458 542 458 q 512 458 479 435 q 446 413 426 374 q 406 335 392 251 l 349 0 l 276 0 l 336 350 q 342 386 342 401 q 342 427 329 442 q 315 458 295 458 q 247 458 204 408 q 161 359 141 245 l 99 0 z"},"#":{"x_min":0,"x_max":456,"ha":456,"o":"m 40 -12 l 75 196 l 7 196 l 7 269 l 87 269 l 117 446 l 7 446 l 7 519 l 128 519 l 164 728 l 224 728 l 188 519 l 315 519 l 350 728 l 410 728 l 375 519 l 445 519 l 445 446 l 363 446 l 333 269 l 445 269 l 445 196 l 321 196 l 287 -12 l 226 -12 l 261 196 l 135 196 l 100 -12 z m 147 269 l 273 269 l 303 446 l 177 446 z"},",":{"x_min":0,"x_max":228,"ha":228,"o":"m 45 0 l 62 100 l 145 100 l 130 13 q 105 -132 20 -145 l 27 -106 q 74 -90 90 0 z"},"n":{"x_min":0,"x_max":456,"ha":456,"o":"m 27 0 l 116 519 l 182 519 l 167 428 q 212 486 250 508 q 288 530 323 530 q 372 530 403 497 q 433 464 433 403 q 433 375 422 314 l 369 0 l 296 0 l 353 329 q 361 377 361 400 q 361 427 345 442 q 330 458 304 458 q 249 458 205 409 q 162 361 141 241 l 100 0 z"},"h":{"x_min":0,"x_max":456,"ha":456,"o":"m 27 0 l 150 716 l 223 716 l 175 441 q 218 491 253 511 q 288 530 323 530 q 373 530 403 498 q 434 465 434 408 q 434 379 421 306 l 369 0 l 296 0 l 350 314 q 362 382 362 400 q 362 426 346 442 q 331 458 306 458 q 268 458 233 435 q 199 412 177 368 q 156 324 138 223 l 100 0 z"},"z":{"x_min":0,"x_max":410,"ha":410,"o":"m 16 0 l 28 68 l 256 382 q 281 416 311 451 q 259 445 236 445 l 79 445 l 91 519 l 420 519 l 411 463 l 180 147 q 160 120 122 73 q 182 78 204 78 l 372 78 l 358 0 z"},"B":{"x_min":0,"x_max":547,"ha":547,"o":"m 36 0 l 158 716 l 340 716 q 407 716 439 704 q 486 688 511 647 q 537 606 537 545 q 537 485 510 441 q 482 396 429 374 q 475 355 500 317 q 524 280 524 227 q 524 165 494 110 q 465 56 419 28 q 374 0 320 0 z m 185 410 l 304 410 q 390 410 423 440 q 463 478 463 541 q 463 572 451 594 q 438 617 418 625 q 399 634 348 634 l 223 634 z m 128 81 l 262 81 q 314 81 332 85 q 364 92 388 108 q 412 124 428 156 q 443 188 443 226 q 443 279 416 304 q 389 329 320 329 l 170 329 z"},"K":{"x_min":0,"x_max":547,"ha":547,"o":"m 37 0 l 159 716 l 238 716 l 179 371 l 498 716 l 608 716 l 335 424 l 535 0 l 448 0 l 278 363 l 155 232 l 115 0 z"},"R":{"x_min":0,"x_max":592,"ha":592,"o":"m 39 0 l 161 716 l 408 716 q 488 716 523 699 q 559 682 576 648 q 599 604 599 542 q 599 448 550 393 q 500 338 401 322 q 434 292 452 261 q 487 199 508 135 l 553 0 l 465 0 l 423 133 q 399 210 370 262 q 351 295 330 307 q 309 318 263 318 l 172 318 l 117 0 z m 185 396 l 293 396 q 383 396 415 402 q 447 409 471 428 q 496 447 510 477 q 524 507 524 543 q 524 576 512 598 q 500 620 482 629 q 464 637 418 637 l 226 637 z"},"T":{"x_min":0,"x_max":501,"ha":501,"o":"m 186 0 l 295 634 l 102 634 l 116 716 l 578 716 l 564 634 l 373 634 l 265 0 z"},"P":{"x_min":0,"x_max":547,"ha":547,"o":"m 36 0 l 158 716 l 404 716 q 467 716 498 698 q 529 681 551 639 q 573 596 573 540 q 573 467 538 403 q 503 338 447 314 q 390 291 311 291 l 164 291 l 114 0 z m 178 372 l 307 372 q 377 372 413 389 q 448 406 471 447 q 495 488 495 537 q 495 575 483 597 q 471 620 450 629 q 429 638 374 638 l 224 638 z"},"|":{"x_min":0,"x_max":213,"ha":213,"o":"m 76 -210 l 76 728 l 139 728 l 139 -210 z"},"t":{"x_min":0,"x_max":228,"ha":228,"o":"m 197 72 l 184 0 q 158 -9 134 -9 q 93 -9 70 13 q 46 34 46 70 q 46 87 57 149 l 108 450 l 51 450 l 62 519 l 120 519 l 142 646 l 225 707 l 192 519 l 263 519 l 251 450 l 181 450 l 131 164 q 122 108 122 99 q 122 82 130 74 q 138 66 154 66 q 178 66 197 72 z"},"M":{"x_min":0,"x_max":683,"ha":683,"o":"m 36 0 l 159 716 l 255 716 l 314 252 q 326 160 330 77 q 354 149 411 272 l 617 716 l 715 716 l 593 0 l 516 0 l 577 348 q 598 469 638 619 q 612 549 575 468 l 356 0 l 281 0 l 222 459 q 214 520 210 606 q 201 515 191 457 l 112 0 z"},"g":{"x_min":0,"x_max":456,"ha":456,"o":"m 23 -47 l 97 -55 l 97 -67 q 97 -101 116 -118 q 135 -135 175 -135 q 238 -135 268 -96 q 288 -68 305 28 l 312 70 q 255 0 192 0 q 129 0 85 57 q 41 114 41 222 q 41 307 74 382 q 108 457 156 493 q 205 530 253 530 q 337 530 382 434 l 397 519 l 463 519 l 377 18 q 358 -95 318 -145 q 269 -208 183 -208 q 102 -208 62 -172 q 21 -136 21 -73 q 21 -62 23 -47 z m 114 229 q 114 171 126 139 q 139 106 160 89 q 182 72 207 72 q 239 72 273 99 q 307 126 331 190 q 355 253 355 319 q 355 385 326 422 q 296 459 255 459 q 221 459 188 429 q 155 399 135 337 q 114 275 114 229 z"},"j":{"x_min":0,"x_max":182,"ha":182,"o":"m 130 616 l 147 716 l 219 716 l 201 616 z m -100 -195 l -87 -120 q -62 -128 -42 -128 q -19 -128 -5 -108 q 8 -89 23 -5 l 112 519 l 185 519 l 92 -21 q 75 -124 52 -160 q 22 -208 -31 -208 q -59 -208 -100 -195 z"},"i":{"x_min":0,"x_max":182,"ha":182,"o":"m 130 616 l 147 716 l 219 716 l 202 616 z m 24 0 l 113 519 l 186 519 l 97 0 z"},"y":{"x_min":0,"x_max":410,"ha":410,"o":"m 0 -200 l 4 -117 q 27 -125 48 -125 q 70 -125 83 -113 q 102 -97 122 -52 l 145 -1 l 74 519 l 146 519 l 178 256 q 188 178 194 101 l 384 519 l 460 519 l 189 -69 q 148 -158 117 -184 q 86 -210 49 -210 q 24 -210 0 -200 z"},"@":{"x_min":0,"x_max":832,"ha":832,"o":"m 465 80 q 437 39 400 16 q 372 -1 342 -1 q 308 -1 274 23 q 241 48 219 100 q 197 152 197 216 q 197 299 232 377 q 266 455 313 492 q 361 529 405 529 q 443 529 474 507 q 504 484 526 439 l 540 515 l 612 515 l 554 188 q 542 119 542 112 q 542 98 551 89 q 559 80 570 80 q 591 80 631 114 q 670 148 697 213 q 724 278 724 351 q 724 438 687 509 q 649 579 583 618 q 517 658 438 658 q 347 658 272 608 q 198 559 151 460 q 104 362 104 237 q 104 116 146 32 q 188 -51 266 -95 q 344 -138 451 -138 q 547 -138 620 -98 q 693 -58 731 9 l 803 9 q 779 -50 724 -104 q 669 -158 603 -184 q 537 -210 450 -210 q 324 -210 235 -159 q 146 -108 96 -10 q 45 89 45 230 q 45 376 101 497 q 158 617 243 673 q 329 729 441 729 q 539 729 615 682 q 692 635 738 545 q 784 456 784 346 q 784 203 698 91 q 626 -2 543 -2 q 502 -2 486 18 q 469 38 465 80 z m 271 212 q 271 144 298 107 q 325 71 359 71 q 386 71 420 99 q 455 128 479 188 q 503 249 503 315 q 503 385 476 421 q 449 457 410 457 q 380 457 350 431 q 320 406 296 340 q 271 275 271 212 z"},".":{"x_min":0,"x_max":228,"ha":228,"o":"m 47 0 l 64 100 l 146 100 l 129 0 z"},"p":{"x_min":0,"x_max":456,"ha":456,"o":"m -8 -199 l 115 519 l 182 519 l 169 446 q 208 495 237 513 q 266 530 298 530 q 357 530 398 477 q 439 424 439 321 q 439 225 406 145 q 373 65 319 22 q 277 -12 231 -12 q 154 -12 112 83 l 64 -199 z m 134 195 q 134 129 161 95 q 188 61 228 61 q 259 61 283 82 q 317 112 342 181 q 367 251 367 322 q 367 388 341 424 q 314 459 276 459 q 246 459 214 432 q 183 405 159 336 q 134 268 134 195 z"},"X":{"x_min":0,"x_max":547,"ha":547,"o":"m -26 0 l 254 362 l 88 716 l 175 716 l 250 554 q 290 470 308 422 q 338 471 399 550 l 528 716 l 630 716 l 347 346 l 508 0 l 422 0 l 327 209 q 314 238 295 289 q 273 253 242 213 l 78 0 z"},"*":{"x_min":0,"x_max":319,"ha":319,"o":"m 93 583 l 111 653 q 174 626 204 606 q 195 691 195 728 l 253 728 q 252 677 244 606 q 284 631 339 654 l 357 584 q 307 564 258 557 q 283 530 327 465 l 279 423 q 256 461 224 528 q 193 457 172 423 l 125 464 q 169 532 191 557 q 137 569 93 583 z"},"Y":{"x_min":0,"x_max":547,"ha":547,"o":"m 229 0 l 277 277 l 96 716 l 180 716 l 267 507 q 294 440 322 360 q 352 427 403 505 l 541 716 l 634 716 l 354 270 l 308 0 z"},"c":{"x_min":0,"x_max":410,"ha":410,"o":"m 320 189 l 393 180 q 366 83 315 35 q 264 -12 202 -12 q 134 -12 90 42 q 46 95 46 196 q 46 295 78 376 q 111 457 160 494 q 210 530 271 530 q 336 530 377 484 q 419 438 418 358 l 347 353 q 347 403 323 430 q 300 458 265 458 q 227 458 196 432 q 165 406 142 337 q 119 268 119 184 q 119 122 144 89 q 168 57 203 57 q 238 57 270 89 q 302 122 320 189 z"},"!":{"x_min":0,"x_max":228,"ha":228,"o":"m 92 181 l 136 569 l 162 716 l 250 716 l 222 557 l 137 181 z m 46 0 l 63 100 l 146 100 l 128 0 z"},"/":{"x_min":0,"x_max":228,"ha":228,"o":"m -42 -12 l 273 728 l 336 728 l 21 -12 z"},"[":{"x_min":0,"x_max":228,"ha":228,"o":"m 5 -196 l 160 716 l 321 716 l 310 648 l 221 648 l 88 -128 l 177 -128 l 166 -196 z"},"6":{"x_min":0,"x_max":456,"ha":456,"o":"m 165 415 q 196 446 226 461 q 256 477 285 477 q 351 477 395 422 q 439 368 439 271 q 439 146 372 60 q 316 -12 239 -12 q 168 -12 118 52 q 68 115 68 239 q 68 349 103 473 q 137 598 201 664 q 254 719 324 719 q 383 719 421 674 q 460 630 466 542 l 398 535 q 387 645 319 645 q 289 645 263 622 q 224 589 199 527 q 174 466 165 415 z m 140 201 q 140 139 171 99 q 202 58 240 58 q 284 58 323 112 q 371 177 371 263 q 371 328 341 367 q 311 406 271 406 q 223 406 181 349 q 140 293 140 201 z"},"r":{"x_min":0,"x_max":273,"ha":273,"o":"m 27 0 l 116 519 l 180 519 l 162 413 q 226 530 291 530 q 312 530 344 511 l 314 429 q 295 446 274 446 q 234 446 195 393 q 155 341 132 208 l 96 0 z"},"2":{"x_min":0,"x_max":456,"ha":456,"o":"m 48 0 q 64 92 105 153 q 136 200 258 319 q 333 392 361 437 q 389 482 389 530 q 389 581 360 615 q 330 648 290 648 q 249 648 218 613 q 188 579 174 501 l 104 514 q 114 612 165 666 q 216 719 289 719 q 368 719 415 664 q 461 608 461 527 q 461 454 418 389 q 392 348 269 229 q 177 140 149 81 l 412 81 l 398 0 z"},"{":{"x_min":0,"x_max":274,"ha":274,"o":"m 69 299 q 97 299 119 316 q 141 333 155 365 q 169 397 186 488 q 202 577 210 606 q 224 653 248 685 q 266 708 291 718 q 316 728 354 728 l 377 728 l 363 651 l 351 651 q 318 651 303 642 q 289 633 280 613 q 271 592 258 515 q 240 411 225 370 q 209 328 188 303 q 167 279 129 259 q 186 227 186 147 q 186 103 161 -33 q 155 -68 155 -90 q 155 -114 167 -124 q 179 -134 212 -134 l 225 -134 l 211 -210 l 189 -210 q 148 -210 129 -200 q 110 -190 98 -168 q 86 -146 86 -113 q 86 -76 104 30 q 119 110 119 138 q 119 176 100 200 q 85 218 55 219 z"},"9":{"x_min":0,"x_max":456,"ha":456,"o":"m 55 164 l 123 172 q 136 62 202 62 q 245 62 280 107 q 332 172 356 291 q 317 255 289 242 q 261 229 234 229 q 173 229 127 284 q 82 340 82 438 q 82 545 138 632 q 193 719 283 719 q 354 719 403 654 q 452 590 452 468 q 452 325 409 203 q 367 81 312 34 q 257 -12 198 -12 q 139 -12 100 33 q 60 78 55 164 z m 152 447 q 152 378 182 339 q 211 300 251 300 q 306 300 346 368 q 383 430 383 502 q 383 545 368 580 q 353 614 329 631 q 306 648 281 648 q 253 648 224 625 q 194 601 173 551 q 152 500 152 447 z"}," ":{"x_min":0,"x_max":228,"ha":228,"o":""},"I":{"x_min":0,"x_max":228,"ha":228,"o":"m 47 0 l 169 716 l 248 716 l 125 0 z"},"H":{"x_min":0,"x_max":592,"ha":592,"o":"m 34 0 l 157 716 l 235 716 l 185 418 l 489 418 l 540 716 l 618 716 l 496 0 l 417 0 l 475 337 l 170 337 l 113 0 z"},"4":{"x_min":0,"x_max":456,"ha":456,"o":"m 246 0 l 277 183 l 38 183 l 53 270 l 381 716 l 441 716 l 363 261 l 445 261 l 432 183 l 349 183 l 318 0 z m 291 261 l 341 560 l 123 261 z"},"~":{"x_min":0,"x_max":479,"ha":479,"o":"m 35 272 l 35 372 q 78 431 146 431 q 169 431 196 422 q 222 414 272 388 q 316 365 341 365 q 365 365 388 379 q 419 399 445 432 l 445 329 q 395 273 334 273 q 311 273 289 279 q 268 286 224 310 q 171 338 140 338 q 115 338 92 325 q 69 312 35 272 z"},"D":{"x_min":0,"x_max":592,"ha":592,"o":"m 36 0 l 159 716 l 336 716 q 396 716 427 707 q 473 693 509 657 q 544 621 564 561 q 583 501 583 423 q 583 319 552 234 q 520 149 472 94 q 425 39 362 17 q 314 0 248 0 z m 128 81 l 222 81 q 287 81 333 95 q 378 109 415 149 q 451 189 477 262 q 504 335 504 428 q 504 509 481 557 q 458 605 417 622 q 389 634 327 634 l 223 634 z"},"^":{"x_min":0,"x_max":385,"ha":385,"o":"m 96 337 l 22 337 l 164 728 l 222 728 l 363 337 l 291 337 l 192 628 z"},"0":{"x_min":0,"x_max":456,"ha":456,"o":"m 58 235 q 58 370 102 496 q 145 623 207 677 q 253 719 306 719 q 372 719 418 659 q 464 599 464 482 q 464 367 435 254 q 397 111 330 41 q 280 -12 215 -12 q 150 -12 104 50 q 58 112 58 235 z m 128 212 q 128 132 154 95 q 180 58 219 58 q 259 58 292 100 q 345 168 370 297 q 395 426 395 503 q 395 581 370 614 q 346 648 306 648 q 263 648 230 607 q 183 548 156 416 q 128 284 128 212 z"},"F":{"x_min":0,"x_max":501,"ha":501,"o":"m 37 0 l 160 716 l 541 716 l 527 634 l 224 634 l 185 406 l 494 406 l 480 325 l 171 325 l 116 0 z"},"`":{"x_min":0,"x_max":273,"ha":273,"o":"m 198 582 l 120 716 l 208 716 l 254 582 z"},"k":{"x_min":0,"x_max":410,"ha":410,"o":"m 28 0 l 150 716 l 223 716 l 147 272 l 358 519 l 454 519 l 272 325 l 382 0 l 303 0 l 218 266 l 130 173 l 100 0 z"},"u":{"x_min":0,"x_max":456,"ha":456,"o":"m 317 94 q 241 -12 161 -12 q 114 -12 83 21 q 51 55 51 107 q 51 140 65 219 l 116 519 l 188 519 l 132 187 q 125 146 125 123 q 125 92 140 76 q 155 61 182 61 q 221 61 259 92 q 297 123 315 169 q 333 216 346 294 l 385 519 l 457 519 l 368 0 l 301 0 z"},"]":{"x_min":0,"x_max":228,"ha":228,"o":"m 112 -196 l -48 -196 l -36 -128 l 52 -128 l 185 648 l 97 648 l 109 716 l 270 716 z"},"U":{"x_min":0,"x_max":592,"ha":592,"o":"m 163 716 l 241 716 l 166 276 q 156 221 156 194 q 156 139 193 103 q 229 67 287 67 q 363 67 411 129 q 448 177 473 322 l 540 716 l 618 716 l 546 296 q 526 174 491 112 q 456 49 405 18 q 354 -13 290 -13 q 192 -13 136 44 q 79 100 79 195 q 79 233 96 325 z"},"o":{"x_min":0,"x_max":456,"ha":456,"o":"m 40 197 q 40 337 103 434 q 166 530 272 530 q 346 530 395 473 q 443 417 443 312 q 443 215 410 140 q 377 64 324 26 q 272 -12 214 -12 q 139 -12 89 44 q 40 100 40 197 z m 113 206 q 113 132 142 94 q 171 57 215 57 q 250 57 285 85 q 319 113 345 178 q 371 243 371 311 q 371 385 342 424 q 312 462 270 462 q 232 462 197 434 q 161 406 137 342 q 113 278 113 206 z"},"N":{"x_min":0,"x_max":592,"ha":592,"o":"m 40 0 l 162 716 l 239 716 l 337 447 q 381 329 406 249 q 424 193 444 108 q 456 201 472 295 l 544 716 l 620 716 l 498 0 l 420 0 l 274 414 q 235 524 213 606 q 208 537 190 435 l 116 0 z"},"+":{"x_min":0,"x_max":479,"ha":479,"o":"m 205 116 l 205 312 l 45 312 l 45 394 l 205 394 l 205 589 l 273 589 l 273 394 l 433 394 l 433 312 l 273 312 l 273 116 z"},"G":{"x_min":0,"x_max":638,"ha":638,"o":"m 336 282 l 350 363 l 607 363 l 557 72 q 506 33 444 10 q 382 -12 324 -12 q 200 -12 140 73 q 80 157 80 287 q 80 417 127 523 q 174 628 245 678 q 316 728 402 728 q 504 728 567 657 q 612 607 628 506 l 551 496 q 539 572 499 610 q 459 648 399 648 q 337 648 283 608 q 229 567 194 483 q 159 398 159 285 q 159 174 204 120 q 249 67 324 67 q 400 67 488 128 l 515 282 z"},"q":{"x_min":0,"x_max":456,"ha":456,"o":"m 302 59 q 240 -12 186 -12 q 126 -12 84 42 q 42 96 42 200 q 42 298 75 376 q 107 455 155 493 q 203 530 252 530 q 291 530 323 504 q 355 478 375 423 l 391 519 l 454 519 l 331 -199 l 258 -199 z m 114 211 q 114 133 141 97 q 167 61 205 61 q 234 61 261 84 q 299 117 323 184 q 348 251 348 322 q 348 386 320 422 q 293 458 256 458 q 223 458 198 437 q 165 408 139 341 q 114 274 114 211 z"},"d":{"x_min":0,"x_max":456,"ha":456,"o":"m 313 75 q 252 -12 184 -12 q 125 -12 84 42 q 43 95 43 201 q 43 296 76 376 q 108 455 156 493 q 204 530 251 530 q 330 530 370 437 l 418 716 l 490 716 l 368 0 l 301 0 z m 115 217 l 115 196 q 115 132 145 91 q 167 59 205 59 q 254 59 294 122 q 348 205 348 327 q 348 389 320 423 q 293 458 255 458 q 219 458 187 425 q 154 392 135 327 q 115 261 115 217 z"},"1":{"x_min":0,"x_max":456,"ha":456,"o":"m 198 0 l 291 541 q 231 483 122 448 l 135 528 q 205 562 275 625 q 328 673 351 719 l 394 719 l 271 0 z"},"5":{"x_min":0,"x_max":456,"ha":456,"o":"m 58 205 l 131 213 l 130 190 q 130 155 145 122 q 160 89 182 74 q 205 58 229 58 q 260 58 294 84 q 328 110 352 164 q 375 218 375 276 q 375 338 346 374 q 316 409 271 409 q 207 409 158 334 l 95 340 l 183 706 l 469 706 l 456 625 l 232 625 l 188 443 q 238 487 293 487 q 358 487 403 434 q 447 381 447 284 q 447 151 376 63 q 315 -12 224 -12 q 178 -12 141 11 q 104 35 81 84 q 57 132 57 189 z"}}}
